<svg width="19" height="13" viewBox="0 0 19 13" fill="none" xmlns="http://www.w3.org/2000/svg">
<path opacity="0.7" fill-rule="evenodd" clip-rule="evenodd" d="M9.49996 0C5.1818 0 1.49408 2.68639 0 6.47842C1.49408 10.2705 5.1818 12.9568 9.49996 12.9568C13.8181 12.9568 17.5058 10.2705 18.9999 6.47842C17.5058 2.68639 13.8181 0 9.49996 0ZM9.49995 10.7974C7.11632 10.7974 5.18178 8.86246 5.18178 6.4784C5.18178 4.09434 7.11632 2.15945 9.49995 2.15945C11.8836 2.15945 13.8181 4.09434 13.8181 6.4784C13.8181 8.86246 11.8836 10.7974 9.49995 10.7974ZM9.49993 3.88705C8.0663 3.88705 6.90903 5.04453 6.90903 6.47842C6.90903 7.91231 8.0663 9.06979 9.49993 9.06979C10.9336 9.06979 12.0908 7.91231 12.0908 6.47842C12.0908 5.04453 10.9336 3.88705 9.49993 3.88705Z" fill="#333333"/>
</svg>
